<?xml version="1.0" encoding="utf-8"?>
<!-- Generator: Adobe Illustrator 17.0.0, SVG Export Plug-In . SVG Version: 6.00 Build 0)  -->
<!DOCTYPE svg PUBLIC "-//W3C//DTD SVG 1.1//EN" "http://www.w3.org/Graphics/SVG/1.1/DTD/svg11.dtd">
<svg version="1.1" id="图层_1" xmlns="http://www.w3.org/2000/svg" xmlns:xlink="http://www.w3.org/1999/xlink" x="0px" y="0px"
	 width="323px" height="216px" viewBox="0 0 323 216" enable-background="new 0 0 323 216" xml:space="preserve">
<path fill="#65A131" d="M76.47,6.814c0,0-61.701,5.866-69.607,59.175c-3.522,23.774-6.861,113.813,48.64,136.84
	c81.992,34.028,154.028-21.236,141.546-107.64C192.297,62.304,184.603-9.848,76.47,6.814"/>
<g>
	<path fill="#FFFFFF" d="M134.217,141.573h5.838v7.367c0,6.313,1.29,8.345,6.99,8.345h8.852v-6.375h-7.565
		c-1.02,0-1.151-0.274-1.151-1.97v-7.367h8.678v-6.65h-36.296v6.65h7.661c-0.508,5.624-0.251,6.42-7.661,10.2v7.271
		C132.779,153.798,133.348,150.732,134.217,141.573z"/>
	<path fill="#FFFFFF" d="M123.643,130.248h27.768v-0.03l0.046,0.03c0,0,2.356-0.329,3.053-1.376v-6.541c0,0-1.221,0.822-3.053,1.242
		c-0.015,0-0.029,0.008-0.046,0.014v-0.014h-27.768c-1.832-0.42-3.05-1.242-3.05-1.242v6.541
		C121.286,129.919,123.643,130.248,123.643,130.248z"/>
	<path fill="#FFFFFF" d="M71.106,64.692V53.619h17.283v-0.043l0.051,0.043c0,0,1.787,0.06,3.515-0.205l0,0
		c0,0,3.146-0.376,3.146-4.25c0-0.006,0-0.009,0-0.009v-5.517c-1.415,1.161-2.517,1.432-6.748,1.56H45.689
		c-1.136,0-2.063,0.177-2.832,0.427c-0.158,0.046-0.307,0.102-0.445,0.161c-0.008,0.001-0.017,0.008-0.028,0.008
		c-2.189,0.961-2.299,3.363-2.299,3.76v6.097c2.482-2.301,5.793-2.033,5.793-2.033h16.536v11.073h-9.633l0.166,0.059h-9.319
		c-1.133,0-2.066,0.18-2.83,0.428c-0.157,0.046-0.309,0.096-0.446,0.16c-0.013,0.008-0.024,0.008-0.029,0.011
		c-2.188,0.963-2.294,3.365-2.3,3.755v6.099c2.33-2.153,5.38-2.117,5.754-2.105v0.01h0.04h11.309h6.818
		c-1.893,7.527-8.792,16.479-21.339,21.084c0.001,0.006,0.001,0.006,0.001,0.006h0.002c-1.5,0.573-2.57,2.02-2.57,3.721
		c0,2.205,1.789,3.994,3.995,3.994c0.471,0,0.923-0.084,1.348-0.234v0.003c0,0,0,0.012,0,0.023
		c13.062-5.01,21.141-12.326,24.467-20.178c5.259,10.854,15.105,18.091,28.12,21.779v-8.671
		c-11.503-3.713-19.873-11.823-23.692-21.528h5.882l0.037,0.01h11.997v-0.01h0.045l0.014,0.01c0,0,1.784,0.055,3.513-0.21l0,0
		c0,0,3.146-0.368,3.146-4.247c0-0.009,0-0.009,0-0.017v-5.51c-1.415,1.167-2.514,1.44-6.749,1.559H71.112l0,0L71.106,64.692
		L71.106,64.692z"/>
	<path fill="#FFFFFF" d="M141.112,64.692V53.619h17.286v-0.043l0.062,0.043c0,0,1.777,0.06,3.506-0.205l0,0
		c0,0,3.146-0.376,3.146-4.25c0-0.006,0-0.009,0-0.009v-5.517c-1.415,1.161-2.52,1.432-6.749,1.56h-42.661
		c-1.139,0-2.066,0.177-2.833,0.427c-0.155,0.046-0.312,0.102-0.439,0.161c-0.017,0.001-0.022,0.008-0.039,0.008
		c-2.187,0.961-2.297,3.363-2.297,3.76v6.097c2.483-2.301,5.796-2.033,5.796-2.033h16.536v11.073h-9.637l0.172,0.059h-9.32
		c-1.137,0-2.069,0.18-2.836,0.428c-0.153,0.046-0.309,0.096-0.448,0.16c-0.01,0.008-0.017,0.008-0.028,0.011
		c-2.188,0.963-2.298,3.365-2.298,3.755v6.099c2.327-2.153,5.379-2.117,5.751-2.105v0.01h0.04h11.312h6.815
		c-1.898,7.527-8.796,16.479-21.335,21.084l0.005,0.006l0,0c-1.502,0.573-2.573,2.02-2.573,3.721c0,2.205,1.791,3.994,3.989,3.994
		c0.473,0,0.932-0.084,1.352-0.234v0.003c0,0,0,0.012,0,0.023c13.061-5.01,21.146-12.326,24.469-20.178
		c5.258,10.854,15.11,18.091,28.117,21.779v-8.671c-11.494-3.713-19.871-11.823-23.684-21.528h5.874l0.039,0.01h12.01v-0.01h0.034
		l0.016,0.01c0,0,1.785,0.055,3.513-0.21l0,0c0,0,3.145-0.368,3.145-4.247c0-0.009,0-0.009,0-0.017v-5.51
		c-1.409,1.167-2.515,1.44-6.745,1.559L141.112,64.692L141.112,64.692L141.112,64.692z"/>
	<path fill="#FFFFFF" d="M88.265,143.212v-0.004h-18.54v-4.563h19.447c-0.04-0.009-0.067-0.021-0.067-0.021s4.525-0.162,4.525-4.992
		v-24.251c-1.074,1.292-8.475,1.435-8.475,1.435H45.207c-8.494,0-8.063,5.429-8.063,5.429v18.308c0,0,0.006,0.025,0.014,0.06v5.671
		c1.748-1.154,3.938-1.535,5.062-1.65c0.164,0.006,0.314,0.015,0.462,0.015H61.34v4.567H42.175v0.023h-1.323
		c-1.132,0-2.069,0.176-2.827,0.425c-0.164,0.052-0.311,0.103-0.45,0.165c-0.01,0-0.021,0.003-0.027,0.01
		c-2.191,0.961-2.299,3.363-2.307,3.758v4.434c2.328-2.159,5.387-2.111,5.757-2.1v0.074l0.037-0.07h1.14v0.012h14.701
		c-4.196,3.854-10.225,7.128-19.63,9.956c0.028,0.014,0.055,0.017,0.055,0.017v0.008c-1.522,0.433-2.639,1.821-2.639,3.482
		c0,1.995,1.617,3.611,3.616,3.611c0.439,0,0.848-0.077,1.237-0.215c8.162-2.486,16.504-5.848,21.824-11.282v14.481h8.385v-14.962
		c6.36,6.496,17.073,10.538,26.114,13.019v-7.277c-7.132-2.32-16.896-6.832-21.364-10.838h13.791v-0.021h0.86v-0.015h0.042
		l0.014,0.015c0,0,1.786,0.055,3.513-0.203v-0.011c0,0,3.146-0.371,3.146-4.252c0-0.006,0-0.008,0-0.012v-3.788
		c-1.412,1.164-2.517,1.438-6.748,1.556h-0.826L88.265,143.212L88.265,143.212z M69.725,117.696H85.17v3.805H69.725V117.696z
		 M69.725,127.891H85.17v3.875H69.725V127.891z M61.341,131.766h-16.08v-3.875h16.08V131.766z M61.341,121.501h-16.08v-3.805h16.08
		V121.501z"/>
	<path fill="#FFFFFF" d="M158.232,111.033H113.95c-5.08,0-5.437,4.474-5.455,5.409v48.563c0,0,0.009,0.066,0.019,0.184
		c-0.01,0.137-0.019,0.242-0.019,0.304v5.685c2.028-1.338,4.658-1.645,5.511-1.684h2.568h41.86h3.074c0,0,1.111,0.143,2.322-0.292
		c0.965-0.29,2.052-0.955,2.57-2.442c0.313-0.748,0.512-1.703,0.512-2.908v-54.241C166.915,111.292,158.232,111.033,158.232,111.033
		z M159.803,162.853h-44.599v-45.021h44.599V162.853z"/>
</g>
<g>
	<path fill="#F6AB00" d="M256.142,14.396c0,0-36.697-2.477-46.03,28.624c-4.1,13.265-10.667,80.9,25.339,91.566
		c7.065,2.334,22.538,8.084,44.061,4.334c22.935-3.996,36.267-23.529,37.728-63.49C317.942,56.245,319.347,14.363,256.142,14.396"/>
	<g>
		<path fill="#FFFFFF" d="M281.372,71.797V52.336h4.848v19.461H281.372z"/>
		<path fill="#FFFFFF" d="M301.896,67.688h-1.363c-1.155,0-1.684-0.635-1.684-1.753v-9.061h1.584l0,0h0.015h0.01
			c0,0,0.864,0.029,1.707-0.098l0,0c0,0,1.525-0.18,1.525-2.058c0,0,0.004,0,0.004-0.008v-2.676
			c-0.689,0.563-1.228,0.695-3.283,0.758h-1.56V47.14H294v5.554h-0.437v0.003h-0.019l-0.009-0.003c0,0-0.862-0.022-1.706,0.101
			c0,0-1.526,0.186-1.526,2.066l0,0v2.678c0.686-0.561,1.222-0.693,3.276-0.753h0.416v9.448c0,2.766,1.685,5.564,5.642,5.564h2.649
			V71.78c0.263-0.02,0.558-0.042,0.85-0.081l0,0c0,0,1.521-0.185,1.521-2.067l0.002-0.006v-2.678
			C304.03,67.458,303.531,67.615,301.896,67.688z"/>
		<path fill="#FFFFFF" d="M239.877,82.242c-1.732-1.732-4.204-2.508-6.937-2.508h-6.466c-2.637,0-2.986,1.814-3.021,2.501v23.775
			h9.487c2.729,0,5.201-0.781,6.937-2.511c2.953-2.953,2.661-6.79,2.661-10.741C242.538,88.813,242.83,85.201,239.877,82.242z
			 M236.3,99.807c-0.889,1.068-2.067,1.621-3.848,1.621h-3.866V84.307h3.866c1.779,0,2.959,0.552,3.848,1.621
			c0.959,1.187,1.108,2.845,1.108,6.83C237.409,96.748,237.259,98.628,236.3,99.807z"/>
		<path fill="#FFFFFF" d="M236.524,45.209v-0.012h-10.01c-2.698,0-2.965,2.007-2.978,2.62v23.982h5.186V60.997h5.981l0,0h1.218
			V60.99h0.02l0.013,0.007c0,0,0.978,0.03,1.93-0.108l0,0c0,0,1.727-0.206,1.727-2.333v-0.005v-3.025
			c-0.784,0.635-1.385,0.791-3.705,0.855h-1.196v-0.013h-5.981v-6.531h4.226l0.007,0.002h3.448v-0.002h0.022l0.008,0.002
			c0,0,0.979,0.028,1.93-0.119l0,0c0,0,1.722-0.206,1.722-2.326c0-0.006,0-0.006,0-0.006v-3.023
			C239.326,44.982,238.719,45.14,236.524,45.209z"/>
		<path fill="#FFFFFF" d="M256.635,52.336c0,1.601-3.768,1.687-3.768,1.687c-2.097,0-3.963,0.973-4.896,2.091v-1.676
			c-0.176-2.005-1.886-2.102-2.118-2.102h-2.629v19.461h4.856v-8.875c0-2.465,1.644-3.623,3.139-3.582
			C258.581,59.513,256.635,52.336,256.635,52.336z"/>
		<path fill="#FFFFFF" d="M273.477,52.336h-2.893v11.768c0,2.65-1.725,3.544-3.253,3.544c-1.536,0-3.214-0.895-3.214-3.544v-9.311
			c0-2.354-1.891-2.457-2.143-2.457h-2.717v12.433c0,2.134,0.413,3.966,1.979,5.54c1.086,1.082,2.657,1.713,4.6,1.713
			c1.795,0,3.584-0.671,4.852-2.011v0.103c0.013,0.388,0.177,1.685,1.836,1.685h2.918V53.968
			C275.202,52.486,273.846,52.342,273.477,52.336z"/>
		<path fill="#FFFFFF" d="M286.316,46.882c0,1.392-1.131,2.522-2.524,2.522c-1.397,0-2.518-1.132-2.518-2.522
			c0-1.4,1.119-2.517,2.518-2.517C285.185,44.364,286.316,45.481,286.316,46.882z"/>
		<path fill="#FFFFFF" d="M253.276,86.563c-3.215,0-5.057,0.589-6.938,2.656l1.415,1.384l0,0l0,0l0.109,0.105
			c0.306,0.27,1.271,0.952,2.872,0.375c0.174-0.085,0.356-0.17,0.555-0.23c0.005-0.01,0.022-0.01,0.026-0.01l0,0
			c0.48-0.15,1.054-0.221,1.777-0.221c2.544,0,3.572,0.921,3.572,3.029v0.953h-4.533c-4.474,0-6.577,2.515-6.577,5.574
			c0,1.7,0.559,3.249,1.597,4.319c1.14,1.142,2.723,1.701,4.9,1.701c2.209,0,3.433-0.56,4.731-1.85v0.036
			c0.024-0.092,0.057-0.144,0.057-0.144s-0.117,1.772,1.809,1.772h2.82V93.355C261.468,88.847,258.662,86.563,253.276,86.563z
			 M256.665,98.923c0,1.182-0.182,1.953-0.702,2.433c-0.848,0.811-1.702,0.924-3.023,0.924c-1.88,0-2.764-0.885-2.764-2.211
			c0-1.367,0.958-2.179,2.688-2.179h3.801V98.923L256.665,98.923z"/>
		<path fill="#FFFFFF" d="M279.618,86.783c-2.152,0-2.859,2.083-2.865,2.098l-3.166,9.784l-3.278-9.784l-0.002-0.009
			c-0.696-2.076-3.039-2.089-3.039-2.089h-2.722l6.571,17.861l-0.812,2.362c-0.477,1.4-1.035,1.733-2.396,1.733h-0.412
			c-2.978,0-2.951,3.571-2.951,3.571v0.746h4.135c1.594,0,3.031-0.372,4.135-1.468c0.59-0.603,1.027-1.409,1.442-2.478l8.229-22.325
			h-2.867L279.618,86.783L279.618,86.783z"/>
	</g>
</g>
</svg>
